<?xml version="1.0" ?><!DOCTYPE svg  PUBLIC '-//W3C//DTD SVG 1.1//EN'  'http://www.w3.org/Graphics/SVG/1.1/DTD/svg11.dtd'><svg height="8.4666mm" style="shape-rendering:geometricPrecision; text-rendering:geometricPrecision; image-rendering:optimizeQuality; fill-rule:evenodd; clip-rule:evenodd" version="1.1" viewBox="0 0 846.66 846.66" width="8.4666mm" xml:space="preserve" xmlns="http://www.w3.org/2000/svg" xmlns:xlink="http://www.w3.org/1999/xlink"><defs><style type="text/css">
   <![CDATA[
    .fil0 {fill:black;fill-rule:nonzero}
   ]]>
  </style></defs><g id="Layer_x0020_1"><path class="fil0" d="M578.87 662.41l0 97.49c0,11.4 -9.25,20.65 -20.65,20.65l-527.12 0c-11.4,0 -20.64,-9.25 -20.64,-20.65l0 -550.27c0,-6.35 2.87,-12.04 7.39,-15.83l125.33 -121.8c4.01,-3.89 9.19,-5.83 14.36,-5.83l400.68 -0.06c11.4,0 20.65,9.24 20.65,20.65l0 351.04 126.06 -220.28c5.66,-9.89 18.26,-13.32 28.15,-7.66l92.73 53.07c9.89,5.66 13.32,18.26 7.67,28.15l-171.61 299.84c-1.56,2.73 -3.65,4.96 -6.06,6.65l-76.94 64.84zm29.31 -78.45l-41.59 -23.8 -11.73 68.75 53.32 -44.95zm-77.38 -59.16c0.37,-2.71 1.22,-5.06 2.53,-7.43l4.25 -7.43 0 -402.54 -371.74 0 -114.09 110.88 0 520.98 485.83 0 0 -41.99c-14.69,11.2 -36,-1.28 -32.84,-19.86l26.06 -152.61zm256.63 -236.31l-56.94 -32.58 -151.11 264.04 56.93 32.58 151.12 -264.04zm-379.95 383.45c-13.15,23.66 -49.12,3.65 -35.97,-20l26.71 -48.08c6.57,-11.8 22.42,-14.11 32.12,-4.97l16.3 13.73 35.04 -46.72c16.23,-21.64 49.13,3.04 32.9,24.68l-48.08 64.11c-7.55,9.23 -20.35,11.24 -29.68,3.39l-14.74 -12.42 -14.6 26.28zm-294.47 -148.18l217.26 0c11.4,0 20.64,9.25 20.64,20.65l0 144.24c0,11.4 -9.24,20.65 -20.64,20.65l-217.26 0c-11.4,0 -20.65,-9.25 -20.65,-20.65l0 -144.24c0,-11.4 9.25,-20.65 20.65,-20.65zm196.61 41.29l-175.97 0 0 102.96 175.97 0 0 -102.96zm-204.61 -59.35c-27.16,0 -27.16,-41.29 0,-41.29l379.31 0c27.15,0 27.15,41.29 0,41.29l-379.31 0zm0 -59.36c-27.16,0 -27.16,-41.29 0,-41.29l379.31 0c27.15,0 27.15,41.29 0,41.29l-379.31 0zm34.24 -202.74c-27.15,0 -27.15,-41.3 0,-41.3l111.12 0c27.15,0 27.15,41.3 0,41.3l-111.12 0zm0 133.63c-27.15,0 -27.15,-41.29 0,-41.29l111.12 0c27.15,0 27.15,41.29 0,41.29l-111.12 0zm0 -66.82c-27.15,0 -27.15,-41.29 0,-41.29l111.12 0c27.15,0 27.15,41.29 0,41.29l-111.12 0zm175.68 -117.87l135.14 0c11.4,0 20.65,9.25 20.65,20.65l0 153.15c0,11.41 -9.25,20.65 -20.65,20.65l-135.14 0c-11.4,0 -20.64,-9.24 -20.64,-20.65l0 -153.15c0,-11.4 9.24,-20.65 20.64,-20.65zm114.49 41.3l-93.84 0 0 111.86 93.84 0 0 -111.86z"/></g></svg>